<?xml version="1.0" encoding="UTF-8" standalone="no"?>
<!-- Created with Inkscape (http://www.inkscape.org/) -->

<svg
   width="188.33337mm"
   height="74.30703mm"
   viewBox="0 0 188.33337 74.30703"
   version="1.1"
   id="svg1"
   xml:space="preserve"
   sodipodi:docname="RBN-logo.svg"
   xmlns:inkscape="http://www.inkscape.org/namespaces/inkscape"
   xmlns:sodipodi="http://sodipodi.sourceforge.net/DTD/sodipodi-0.dtd"
   xmlns:xlink="http://www.w3.org/1999/xlink"
   xmlns="http://www.w3.org/2000/svg"
   xmlns:svg="http://www.w3.org/2000/svg"><sodipodi:namedview
     id="namedview1"
     pagecolor="#ffffff"
     bordercolor="#000000"
     borderopacity="0.25"
     inkscape:showpageshadow="2"
     inkscape:pageopacity="0.0"
     inkscape:pagecheckerboard="0"
     inkscape:deskcolor="#d1d1d1"
     inkscape:document-units="mm"><inkscape:page
       x="0"
       y="0"
       width="188.33337"
       height="74.30703"
       id="page2"
       margin="0"
       bleed="0" /></sodipodi:namedview><defs
     id="defs1"><linearGradient
       id="linearGradient10"><stop
         style="stop-color:#ff8679;stop-opacity:1;"
         offset="0"
         id="stop9" /><stop
         style="stop-color:#ff6857;stop-opacity:1;"
         offset="1"
         id="stop10" /></linearGradient><linearGradient
       id="linearGradient8"><stop
         style="stop-color:#ff8679;stop-opacity:1;"
         offset="0"
         id="stop7" /><stop
         style="stop-color:#ff6857;stop-opacity:1;"
         offset="1"
         id="stop8" /></linearGradient><linearGradient
       id="linearGradient4"><stop
         style="stop-color:#ff8679;stop-opacity:1;"
         offset="0"
         id="stop4" /><stop
         style="stop-color:#ff6857;stop-opacity:1;"
         offset="1"
         id="stop5" /></linearGradient><linearGradient
       xlink:href="#linearGradient10"
       id="linearGradient5"
       x1="296.14767"
       y1="256.6134"
       x2="337.5629"
       y2="298.02863"
       gradientUnits="userSpaceOnUse" /><linearGradient
       xlink:href="#linearGradient4"
       id="linearGradient6"
       x1="167.4373"
       y1="254.05783"
       x2="213.93683"
       y2="300.55737"
       gradientUnits="userSpaceOnUse" /><linearGradient
       xlink:href="#linearGradient8"
       id="linearGradient7"
       x1="236.29033"
       y1="258.04007"
       x2="274.84634"
       y2="296.5961"
       gradientUnits="userSpaceOnUse" /></defs><g
     id="layer5"
     transform="translate(-157.8069,-240.15403)"><path
       id="path42-2"
       style="display:inline;opacity:1;fill:url(#linearGradient5);fill-opacity:1;stroke:none;stroke-width:1.98438;stroke-linecap:square;stroke-linejoin:miter;stroke-dasharray:none;stroke-opacity:1"
       d="m 297.64667,240.18205 -0.008,0.008 v -0.006 h -10.0644 -0.004 l 0.004,10.0607 45.52987,64.21561 h 13.03015 0.006 c -0.006,-2.3817 -0.0157,-39.63505 -0.0259,-41.99507 v -6.2e-4 -13.90289 -6.2e-4 -6.2e-4 c 9.3e-4,-0.17818 9.3e-4,-0.35673 0.003,-0.53511 h -9.4e-4 c 0.006,-1.71497 0.0107,-3.4346 0.0123,-5.15318 h 0.004 v -6e-4 c -0.003,-0.0307 -0.25221,-0.28825 -0.55487,-0.57279 -0.3027,-0.28454 -1.27902,-1.24214 -2.16892,-2.12817 -1.25852,-1.253 -10.11292,-9.8748 -10.23784,-9.9891 -0.0534,4.17067 -0.0671,8.42791 -0.0635,12.69006 h -6.2e-4 l -6.1e-4,-6.3e-4 -6.2e-4,-6.2e-4 h -6.3e-4 v -6.1e-4 h -6e-4 -6.3e-4 v 6.1e-4 6.2e-4 6.3e-4 6e-4 6.3e-4 c -0.003,0.0264 -0.0145,2.24133 -0.0253,5.15255 h -6.2e-4 c -9.3e-4,0.18282 -0.003,0.36178 -0.004,0.53574 v 6.3e-4 6.1e-4 13.90289 6.2e-4 c 0.008,0.98028 0.0119,2.10949 0.0167,3.30029 0.003,0.58074 0.005,6.97806 0.006,14.41085 z m -9.9786,19.46713 c -0.0534,4.17065 -0.0678,8.42791 -0.0641,12.69005 h -6.2e-4 l -6.3e-4,-6e-4 -6e-4,-6.2e-4 h -6.3e-4 v -6.2e-4 h -6.2e-4 -6.1e-4 v 6.2e-4 6.2e-4 6e-4 6.2e-4 6.2e-4 c -0.003,0.0264 -0.014,2.24133 -0.0247,5.15256 h -9.3e-4 c -9.4e-4,0.18283 -0.003,0.36178 -0.004,0.53574 v 6.1e-4 6.2e-4 13.90291 5.9e-4 c 0.008,0.98028 0.0119,2.10949 0.0167,3.30028 0.0129,3.56371 0.0272,6.50467 0.0297,6.53513 0.003,0.0307 0.2522,0.28886 0.55487,0.5734 0.3027,0.28455 1.27901,1.24152 2.16892,2.12756 1.25853,1.253 10.11289,9.87491 10.23783,9.9891 v -6.2e-4 c 0.0946,-7.38798 0.0666,-15.04661 0.0339,-22.52545 v -6.3e-4 -13.90289 -6.1e-4 -6.2e-4 c 2.2e-4,-0.0332 4.4e-4,-0.0662 6.2e-4,-0.0994 z" /><path
       id="path49-1"
       style="display:inline;opacity:1;fill:url(#linearGradient7);fill-opacity:1;stroke:none;stroke-width:1.98438;stroke-linecap:square;stroke-linejoin:miter;stroke-dasharray:none;stroke-opacity:1"
       d="m 257.96993,240.17569 -14.17072,6.1e-4 v 0.008 c -4.26233,-0.004 -8.5192,0.0108 -12.69004,0.0635 0.11418,0.12492 8.73608,8.9799 9.98908,10.23842 0.88603,0.88991 1.843,1.8656 2.12755,2.1683 0.28453,0.30268 0.5427,0.5531 0.57341,0.5555 v 0.007 h 1.09309 c 1.17561,0.006 3.18371,0.0147 5.44202,0.0228 1.19078,0.005 2.32001,0.01 3.30027,0.0167 v -0.0395 h 4.33596 c 5.07132,-4e-5 9.18242,4.11107 9.18238,9.18237 4e-5,4.22959 -2.71633,8.8571 -6.75115,8.8571 h -19.02887 c 0.0124,-5.18167 0.005,-10.38103 -0.0599,-15.45332 v -6.2e-4 c -0.12492,0.11419 -8.97928,8.73608 -10.23781,9.98909 -0.8899,0.88603 -1.86621,1.843 -2.16891,2.12753 -0.30267,0.28455 -0.55248,0.54272 -0.55488,0.57341 -0.003,0.0305 -0.0167,2.97141 -0.0297,6.53512 -0.005,1.19079 -0.01,2.32 -0.0166,3.30028 v 6.1e-4 13.90286 6.2e-4 6.1e-4 c 9.4e-4,0.17396 0.003,0.35292 0.004,0.53575 h 9.4e-4 c 0.0108,2.9112 0.0221,5.12611 0.0247,5.15254 v 6.2e-4 6.2e-4 6.1e-4 6.2e-4 6.2e-4 h 6.1e-4 6.2e-4 v -6.2e-4 h 6.3e-4 l 6.1e-4,-6.2e-4 6.2e-4,-6.1e-4 h 6.2e-4 c -0.004,4.26214 0.0107,8.51936 0.0641,12.69003 0.12492,-0.11431 8.97929,-8.73607 10.23782,-9.98908 0.8899,-0.88604 1.86621,-1.84364 2.1689,-2.12817 0.30267,-0.28455 0.55249,-0.5421 0.55488,-0.57278 v -6.2e-4 h -0.004 c -9.4e-4,-1.71856 -0.006,-3.43821 -0.0123,-5.15316 h 9.4e-4 c -7.8e-4,-0.17839 -9.4e-4,-0.35695 -0.003,-0.53513 v -6.2e-4 -6.1e-4 -9.17929 h 6.2e-4 v 6.1e-4 h 6.3e-4 9.09657 10.16684 6.2e-4 6.1e-4 c 5.07058,9.4e-4 9.18057,4.1118 9.18052,9.18238 5e-5,5.07131 -4.11108,9.18242 -9.18237,9.18237 h -4.33597 v -0.0395 c -0.98028,0.008 -2.10949,0.0121 -3.30026,0.0167 -2.2583,0.008 -4.26642,0.0168 -5.44204,0.0228 h -1.09309 v 0.008 c -0.0307,0.003 -0.28885,0.25345 -0.5734,0.55612 -0.28453,0.3027 -1.24151,1.27776 -2.12755,2.16766 -1.25302,1.25853 -9.87488,10.11353 -9.98907,10.23845 4.17083,0.0527 8.42769,0.0671 12.69002,0.0635 v 0.008 l 14.17075,6.1e-4 v -0.004 c 12.30853,-0.12255 22.22261,-10.13541 22.22235,-22.44456 8e-5,-6.23824 -2.58209,-12.0535 -6.9178,-16.2088 2.72273,-3.75347 4.2774,-8.33974 4.27734,-13.18071 2.6e-4,-12.30916 -9.91381,-22.32202 -22.22236,-22.44456 z" /><path
       id="path37-8"
       style="display:inline;opacity:1;fill:url(#linearGradient6);fill-opacity:1;stroke:none;stroke-width:1.98438;stroke-linecap:square;stroke-linejoin:miter;stroke-dasharray:none;stroke-opacity:1"
       d="m 170.49657,240.15433 v 0.008 c -4.26233,-0.004 -8.51883,0.0109 -12.68967,0.0636 0.11418,0.12492 8.73606,8.97961 9.98906,10.23813 0.88603,0.88991 1.84297,1.86564 2.12752,2.16834 0.28453,0.30268 0.54238,0.55312 0.57309,0.55552 v 0.007 h 0.54674 v -0.0212 c 0.0307,0.003 2.97201,0.0165 6.53551,0.0295 1.19078,0.005 2.31979,0.0104 3.30006,0.0171 v -10e-4 h 14.93036 c 5.0713,-4e-5 9.18242,4.11108 9.18238,9.18238 4e-5,5.07058 -4.10974,9.18142 -9.18032,9.18239 h -0.003 -7.52564 v 11.47165 l 19.34352,31.40532 h 15.94115 l -19.43809,-31.08028 c 8.41162,-3.46246 13.90158,-11.65947 13.90148,-20.75584 2.6e-4,-12.30916 -9.91335,-22.32207 -22.2219,-22.44462 v -0.003 l -14.92984,5.1e-4 c -2.60086,-0.0142 -6.23995,-0.0222 -9.83557,-0.0238 z m 12.42353,15.34739 c -0.12492,0.11418 -8.9791,8.73605 -10.23762,9.98905 -0.88991,0.88604 -1.86616,1.84298 -2.16886,2.12752 -0.30267,0.28454 -0.5526,0.54291 -0.555,0.57361 -0.003,0.0304 -0.017,2.97129 -0.03,6.535 -0.005,1.19078 -0.01,2.3203 -0.0165,3.30057 v 5.2e-4 13.90303 5.1e-4 5.2e-4 c 0.008,0.98027 0.0122,2.10875 0.0165,3.29954 0.0129,3.56371 0.027,6.50555 0.03,6.53603 0.003,0.0307 0.25233,0.28804 0.555,0.57258 0.3027,0.28454 1.27895,1.24199 2.16886,2.12803 1.25852,1.253 10.1127,9.87482 10.23762,9.98906 0.0946,-7.38796 0.0668,-15.04641 0.0341,-22.52524 v -5.2e-4 -5.1e-4 -13.90303 -5.2e-4 c 0.0327,-7.47883 0.0605,-15.13779 -0.0341,-22.52575 z" /></g></svg>
